<?xml version="1.0" encoding="utf-8"?><svg version="1.1" id="Layer_1" xmlns="http://www.w3.org/2000/svg" xmlns:xlink="http://www.w3.org/1999/xlink" x="0px" y="0px" viewBox="0 0 122.88 122.88" style="enable-background:new 0 0 122.88 122.88" xml:space="preserve"><style type="text/css">.st0{fill:#DC395F;}</style><g><path class="st0" d="M111.74,0H11.14C4.99,0,0,4.99,0,11.14v100.6c0,6.15,4.99,11.14,11.14,11.14h100.6 c6.15,0,11.14-4.99,11.14-11.14V11.14C122.88,4.99,117.89,0,111.74,0L111.74,0z M48.57,31.26c0,4.2-3.42,7.4-7.51,7.4 c-4.08,0-7.51-3.2-7.51-7.4c0-4.19,3.42-7.39,7.51-7.39C45.15,23.87,48.57,27.07,48.57,31.26L48.57,31.26z M51.99,45.5h18.88 l-2.43,11.1c3.31-6.18,9.94-12.06,16.45-12.06c6.95,0,12.69,4.95,12.69,14.45c0,2.43-0.33,5.07-1.21,8.05l-3.53,12.69 c-0.33,1.33-0.55,2.43-0.55,3.42c0,2.21,0.88,3.31,2.54,3.31c1.66,0,3.75-1.22,6.18-7.95l4.86,1.87 c-2.87,10.05-8.06,14.24-14.57,14.24c-7.62,0-11.26-4.52-11.26-10.71c0-1.76,0.22-3.64,0.77-5.52l3.64-13.03 c0.44-1.44,0.55-2.76,0.55-3.97c0-4.19-2.54-6.73-6.62-6.73c-5.19,0-8.61,3.72-10.38,10.9L60.93,93.9l-12.36,0L50.79,85 c-3.63,5.97-8.68,9.67-14.91,9.67c-7.51,0-11.04-4.32-11.04-10.84c0-1.65,0.22-3.68,0.66-5.56l5.63-23h-8.72l2.65-9.77h20.97 l-8.28,32.84c-0.55,2.1-0.77,3.84-0.77,5.05c0,2.1,1.03,2.71,2.65,3.08c0.98,0.22,8.83,0.07,13.1-9.43l5.44-21.77h-8.83L51.99,45.5 L51.99,45.5z"/></g></svg>