<svg width="150" height="209" viewBox="0 0 150 209" fill="none" xmlns="http://www.w3.org/2000/svg">
<path d="M117.436 207.036V154.604L118.529 153.51H129.452L130.545 154.604V207.036L129.452 208.13H118.529L117.436 207.036Z" fill="#05BDBA"/>
<path d="M117.436 53.5225V1.09339L118.529 0H129.452L130.545 1.09339V53.5225L129.452 54.6159H118.529L117.436 53.5225Z" fill="#05BDBA"/>
<path d="M69.954 169.238H68.4095L60.687 161.512V159.967L78.7202 141.938L86.8977 141.942L87.9949 143.031V151.209L69.954 169.238Z" fill="#05BDBA"/>
<path d="M69.9462 38.8917H68.4017L60.6792 46.6181V48.1626L78.7124 66.192L86.8899 66.1882L87.9871 65.0986V56.9212L69.9462 38.8917Z" fill="#05BDBA"/>
<path d="M1.09339 97.5104H75.3711L76.4645 98.6038V109.526L75.3711 110.62H1.09339L0 109.526V98.6038L1.09339 97.5104Z" fill="#05BDBA"/>
<path d="M135.454 131.681L134.361 130.587L134.368 98.9173C134.368 93.4542 132.22 89.2183 125.625 89.0807C122.234 88.9927 118.354 89.073 114.209 89.2489L113.59 89.8835L113.598 130.587L112.504 131.681H99.3913L98.2979 130.587V77.5389L99.3913 76.4454L128.901 76.1779C143.685 76.1779 149.668 86.3357 149.668 97.801V130.587L148.575 131.681H135.454Z" fill="#014847"/>
</svg>
